<svg width="20" height="20" viewBox="0 0 20 20" fill="none" xmlns="http://www.w3.org/2000/svg">
<path d="M11.25 2.5C13.1286 2.5 14.9303 3.24628 16.2587 4.57466C17.5871 5.90304 18.3334 7.70472 18.3334 9.58333C18.3334 11.462 17.5871 13.2636 16.2587 14.592C14.9303 15.9204 13.1286 16.6667 11.25 16.6667H10.8334V17.4917C10.8334 17.6023 10.8116 17.7118 10.7692 17.814C10.7269 17.9161 10.6648 18.0089 10.5865 18.0871C10.5083 18.1653 10.4154 18.2273 10.3132 18.2695C10.211 18.3118 10.1015 18.3334 9.99085 18.3333C7.94085 18.3317 5.86419 17.6475 4.28835 16.2467C2.69835 14.8317 1.66835 12.7292 1.66669 10.0075V9.58333C1.66669 7.70472 2.41296 5.90304 3.74135 4.57466C5.06973 3.24628 6.8714 2.5 8.75002 2.5H11.25ZM11.25 4.16667H8.75002C7.31343 4.16667 5.93568 4.73735 4.91986 5.75317C3.90404 6.76899 3.33335 8.14674 3.33335 9.58333L3.33419 10.1375C3.36752 12.3392 4.20169 13.9392 5.39669 15.0008C6.42835 15.9192 7.76419 16.4667 9.16669 16.6208V15.8417C9.16669 15.3767 9.54335 15 10.0084 15H11.25C12.6866 15 14.0644 14.4293 15.0802 13.4135C16.096 12.3977 16.6667 11.0199 16.6667 9.58333C16.6667 8.14674 16.096 6.76899 15.0802 5.75317C14.0644 4.73735 12.6866 4.16667 11.25 4.16667ZM7.08335 8.33333C7.41487 8.33333 7.73282 8.46503 7.96724 8.69945C8.20166 8.93387 8.33335 9.25181 8.33335 9.58333C8.33335 9.91485 8.20166 10.2328 7.96724 10.4672C7.73282 10.7016 7.41487 10.8333 7.08335 10.8333C6.75183 10.8333 6.43389 10.7016 6.19947 10.4672C5.96505 10.2328 5.83335 9.91485 5.83335 9.58333C5.83335 9.25181 5.96505 8.93387 6.19947 8.69945C6.43389 8.46503 6.75183 8.33333 7.08335 8.33333ZM12.9167 8.33333C13.2482 8.33333 13.5661 8.46503 13.8006 8.69945C14.035 8.93387 14.1667 9.25181 14.1667 9.58333C14.1667 9.91485 14.035 10.2328 13.8006 10.4672C13.5661 10.7016 13.2482 10.8333 12.9167 10.8333C12.5852 10.8333 12.2672 10.7016 12.0328 10.4672C11.7984 10.2328 11.6667 9.91485 11.6667 9.58333C11.6667 9.25181 11.7984 8.93387 12.0328 8.69945C12.2672 8.46503 12.5852 8.33333 12.9167 8.33333Z" fill="white"/>
</svg>
