<svg width="24" height="24" viewBox="0 0 24 24" fill="none" xmlns="http://www.w3.org/2000/svg">
<path d="M8.5 6.5C8.5 6.04037 8.59053 5.58525 8.76642 5.16061C8.94231 4.73597 9.20012 4.35013 9.52512 4.02513C9.85013 3.70012 10.236 3.44231 10.6606 3.26642C11.0852 3.09053 11.5404 3 12 3C12.4596 3 12.9147 3.09053 13.3394 3.26642C13.764 3.44231 14.1499 3.70012 14.4749 4.02513C14.7999 4.35013 15.0577 4.73597 15.2336 5.16061C15.4095 5.58525 15.5 6.04037 15.5 6.5C15.5 7.42826 15.1312 8.3185 14.4749 8.97487C13.8185 9.63125 12.9283 10 12 10C11.0717 10 10.1815 9.63125 9.52512 8.97487C8.86875 8.3185 8.5 7.42826 8.5 6.5ZM4.5 11C5.16304 11 5.79892 10.7366 6.26776 10.2678C6.73661 9.79893 7 9.16304 7 8.5C7 7.83696 6.73661 7.20107 6.26776 6.73223C5.79892 6.26339 5.16304 6 4.5 6C3.83696 6 3.20107 6.26339 2.73223 6.73223C2.26339 7.20107 2 7.83696 2 8.5C2 9.16304 2.26339 9.79893 2.73223 10.2678C3.20107 10.7366 3.83696 11 4.5 11ZM22 8.5C22 9.16304 21.7366 9.79893 21.2678 10.2678C20.7989 10.7366 20.163 11 19.5 11C18.837 11 18.2011 10.7366 17.7322 10.2678C17.2634 9.79893 17 9.16304 17 8.5C17 7.83696 17.2634 7.20107 17.7322 6.73223C18.2011 6.26339 18.837 6 19.5 6C20.163 6 20.7989 6.26339 21.2678 6.73223C21.7366 7.20107 22 7.83696 22 8.5ZM10.5 12C9.12 12 8 13.12 8 14.5V17C8 18.0609 8.42142 19.0783 9.17157 19.8284C9.92172 20.5786 10.9391 21 12 21C13.0609 21 14.0783 20.5786 14.8284 19.8284C15.5786 19.0783 16 18.0609 16 17V14.5C16 13.12 14.88 12 13.5 12H10.5ZM6 14.5C6 13.922 6.108 13.37 6.308 12.864L3.846 13.524C3.20592 13.6956 2.66015 14.1143 2.32863 14.6881C1.99711 15.2618 1.90696 15.9438 2.078 16.584L2.466 18.034C2.60199 18.5415 2.83662 19.0172 3.15648 19.4339C3.47635 19.8507 3.87518 20.2004 4.3302 20.463C4.78522 20.7256 5.28752 20.896 5.80841 20.9645C6.3293 21.0329 6.85857 20.9981 7.366 20.862L7.4 20.852C6.49566 19.7721 6.00006 18.4085 6 17V14.5ZM18 17C18 18.466 17.474 19.81 16.6 20.854L16.632 20.862C17.6565 21.1363 18.748 20.9925 19.6665 20.4621C20.585 19.9318 21.2553 19.0584 21.53 18.034L21.918 16.584C22.089 15.9438 21.9989 15.2618 21.6674 14.6881C21.3358 14.1143 20.7901 13.6956 20.15 13.524L17.694 12.864C17.892 13.372 18 13.924 18 14.5V17Z" fill="#E6E6E6"/>
</svg>
