<svg width="24" height="24" viewBox="0 0 24 24" fill="none" xmlns="http://www.w3.org/2000/svg">
<path d="M21.25 9.94383C21.2488 10.5803 21.0505 11.2007 20.6823 11.7198C20.3142 12.2389 19.7942 12.6312 19.194 12.8428C18.8657 12.9661 18.5177 13.0288 18.167 13.0278C17.5306 13.0266 16.9102 12.8283 16.391 12.4602C15.8719 12.092 15.4796 11.5721 15.268 10.9718C15.1446 10.6432 15.0819 10.2949 15.083 9.94383C15.086 10.2948 15.023 10.6438 14.898 10.9718C14.6865 11.5719 14.2943 12.0917 13.7754 12.4599C13.2565 12.828 12.6362 13.0264 12 13.0278C11.3638 13.0264 10.7435 12.828 10.2246 12.4599C9.70571 12.0917 9.31353 11.5719 9.102 10.9718C8.97862 10.6432 8.91594 10.2949 8.917 9.94383C8.919 10.2948 8.857 10.6438 8.732 10.9718C8.52041 11.5721 8.12809 12.092 7.60896 12.4602C7.08984 12.8283 6.46942 13.0266 5.833 13.0278C5.483 13.0298 5.133 12.9678 4.806 12.8428C4.20578 12.6312 3.68584 12.2389 3.31768 11.7198C2.94951 11.2007 2.7512 10.5803 2.75 9.94383L3.212 8.32083L4.322 5.15483C4.46343 4.75238 4.72632 4.40376 5.07436 4.15711C5.42239 3.91046 5.83842 3.77793 6.265 3.77783H17.735C18.1614 3.77814 18.5772 3.91076 18.9251 4.1574C19.2729 4.40404 19.5356 4.75254 19.677 5.15483L20.787 8.32083L21.25 9.94383Z" stroke="#E6E6E6" stroke-width="1.5" stroke-linecap="round" stroke-linejoin="round"/>
<path d="M19.194 12.8428V18.1668C19.1937 18.7117 18.9771 19.2343 18.5918 19.6196C18.2064 20.0049 17.6839 20.2215 17.139 20.2218H6.85996C6.59 20.2219 6.32267 20.1688 6.07323 20.0656C5.82379 19.9624 5.59713 19.8111 5.4062 19.6202C5.21527 19.4294 5.06381 19.2028 4.96048 18.9534C4.85714 18.704 4.80396 18.4367 4.80396 18.1668V12.8428M8.91695 17.1388H15.083" stroke="#E6E6E6" stroke-width="1.5" stroke-linecap="round" stroke-linejoin="round"/>
</svg>
