<svg width="20" height="20" viewBox="0 0 20 20" fill="none" xmlns="http://www.w3.org/2000/svg">
<path d="M11.2501 2.5C13.1287 2.5 14.9304 3.24628 16.2588 4.57466C17.5871 5.90304 18.3334 7.70472 18.3334 9.58333C18.3334 11.4619 17.5871 13.2636 16.2588 14.592C14.9304 15.9204 13.1287 16.6667 11.2501 16.6667H10.8334V17.4917C10.8334 17.6023 10.8116 17.7118 10.7693 17.814C10.7269 17.9161 10.6648 18.0089 10.5866 18.0871C10.5084 18.1653 10.4155 18.2273 10.3133 18.2695C10.2111 18.3118 10.1015 18.3334 9.99091 18.3333C7.94091 18.3317 5.86425 17.6475 4.28841 16.2467C2.69841 14.8317 1.66841 12.7292 1.66675 10.0075V9.58333C1.66675 7.70472 2.41303 5.90304 3.74141 4.57466C5.06979 3.24628 6.87146 2.5 8.75008 2.5H11.2501ZM11.2501 4.16667H8.75008C7.31349 4.16667 5.93574 4.73735 4.91992 5.75317C3.9041 6.76899 3.33341 8.14674 3.33341 9.58333L3.33425 10.1375C3.36758 12.3392 4.20175 13.9392 5.39675 15.0008C6.42841 15.9192 7.76425 16.4667 9.16675 16.6208V15.8417C9.16675 15.3767 9.54341 15 10.0084 15H11.2501C12.6867 15 14.0644 14.4293 15.0802 13.4135C16.0961 12.3977 16.6667 11.0199 16.6667 9.58333C16.6667 8.14674 16.0961 6.76899 15.0802 5.75317C14.0644 4.73735 12.6867 4.16667 11.2501 4.16667ZM7.08341 8.33333C7.41494 8.33333 7.73288 8.46503 7.9673 8.69945C8.20172 8.93387 8.33341 9.25181 8.33341 9.58333C8.33341 9.91485 8.20172 10.2328 7.9673 10.4672C7.73288 10.7016 7.41494 10.8333 7.08341 10.8333C6.75189 10.8333 6.43395 10.7016 6.19953 10.4672C5.96511 10.2328 5.83341 9.91485 5.83341 9.58333C5.83341 9.25181 5.96511 8.93387 6.19953 8.69945C6.43395 8.46503 6.75189 8.33333 7.08341 8.33333ZM12.9167 8.33333C13.2483 8.33333 13.5662 8.46503 13.8006 8.69945C14.0351 8.93387 14.1667 9.25181 14.1667 9.58333C14.1667 9.91485 14.0351 10.2328 13.8006 10.4672C13.5662 10.7016 13.2483 10.8333 12.9167 10.8333C12.5852 10.8333 12.2673 10.7016 12.0329 10.4672C11.7984 10.2328 11.6667 9.91485 11.6667 9.58333C11.6667 9.25181 11.7984 8.93387 12.0329 8.69945C12.2673 8.46503 12.5852 8.33333 12.9167 8.33333Z" fill="white"/>
</svg>
