<svg width="19" height="17" viewBox="0 0 19 17" fill="none" xmlns="http://www.w3.org/2000/svg">
<path d="M9.57319 14.2793L9.4784 14.3711L9.37414 14.2793C4.8719 10.3215 1.89568 7.7044 1.89568 5.05056C1.89568 3.21399 3.31744 1.83657 5.21312 1.83657C6.6728 1.83657 8.09456 2.75485 8.59691 4.00372H10.3599C10.8623 2.75485 12.284 1.83657 13.7437 1.83657C15.6394 1.83657 17.0611 3.21399 17.0611 5.05056C17.0611 7.7044 14.0849 10.3215 9.57319 14.2793ZM13.7437 0C12.0944 0 10.5116 0.743809 9.4784 1.91003C8.44526 0.743809 6.86237 0 5.21312 0C2.29377 0 0 2.21306 0 5.05056C0 8.51249 3.22266 11.35 8.10404 15.6384L9.4784 16.8505L10.8528 15.6384C15.7342 11.35 18.9568 8.51249 18.9568 5.05056C18.9568 2.21306 16.663 0 13.7437 0Z" fill="white"/>
</svg>
