<svg width="19" height="15" viewBox="0 0 19 15" fill="none" xmlns="http://www.w3.org/2000/svg">
<path d="M3.66667 14.6667C2.65833 14.6667 1.79514 14.3076 1.07708 13.5896C0.359028 12.8715 0 12.0083 0 11V3.66667C0 2.65833 0.359028 1.79514 1.07708 1.07708C1.79514 0.359028 2.65833 0 3.66667 0H14.6667C15.675 0 16.5382 0.359028 17.2563 1.07708C17.9743 1.79514 18.3333 2.65833 18.3333 3.66667V11C18.3333 12.0083 17.9743 12.8715 17.2563 13.5896C16.5382 14.3076 15.675 14.6667 14.6667 14.6667H3.66667ZM3.66667 3.66667H14.6667C15.0028 3.66667 15.3236 3.70486 15.6292 3.78125C15.9347 3.85764 16.225 3.97986 16.5 4.14792V3.66667C16.5 3.1625 16.3206 2.73106 15.9619 2.37233C15.6032 2.01361 15.1714 1.83394 14.6667 1.83333H3.66667C3.1625 1.83333 2.73106 2.013 2.37233 2.37233C2.01361 2.73167 1.83394 3.16311 1.83333 3.66667V4.14792C2.10833 3.97986 2.39861 3.85764 2.70417 3.78125C3.00972 3.70486 3.33056 3.66667 3.66667 3.66667ZM1.97083 6.64583L12.1687 9.12083C12.3062 9.15139 12.4438 9.15139 12.5813 9.12083C12.7188 9.09028 12.8486 9.02917 12.9708 8.9375L16.1563 6.27917C15.9882 6.05 15.7743 5.863 15.5146 5.71817C15.2549 5.57333 14.9722 5.50061 14.6667 5.5H3.66667C3.26944 5.5 2.92203 5.60328 2.62442 5.80983C2.32681 6.01639 2.10894 6.29506 1.97083 6.64583Z" fill="white"/>
</svg>
